<svg width="256" height="256" version="1.1" viewBox="0 0 67.733 67.733" xmlns="http://www.w3.org/2000/svg">
<circle cx="34.915" cy="33.931" r="26.992" fill="#ffea80" stroke="#000" stroke-width=".55034"/>
<path transform="matrix(.52213 0 0 .52213 23.963 .34514)" d="m20.976 16.699 7.9375 39.688 39.688 7.9375-39.688 7.9375-7.9375 39.688-7.9375-39.687-39.688-7.9375 39.688-7.9375z" fill="#808080" stroke="#000" stroke-width="1.054"/>
<path transform="matrix(.52213 0 0 .52213 23.963 .34514)" d="m44.789 40.512-12.587 23.812 12.587 23.813-23.812-12.587-23.813 12.587 12.587-23.812-12.587-23.813 23.812 12.587z" fill="#808080" stroke="#000" stroke-width="1.054"/>
<ellipse cx="34.915" cy="33.992" rx="4.7427" ry="4.7427" fill="#ffea80" stroke="#000" stroke-width=".55034" style="mix-blend-mode:normal"/>
<text x="33.602085" y="66.145836" fill="#ffea80" font-size="4.9389px" stroke="#000000" stroke-width=".79375" xml:space="preserve"><tspan x="33.602085" y="66.145836" stroke-width=".79375">S</tspan></text>
<text x="1.8520833" y="35.71875" fill="#ffea80" font-size="4.9389px" stroke="#000000" stroke-width=".79375" xml:space="preserve"><tspan x="1.8520833" y="35.71875" stroke-width=".79375">W</tspan></text>
<text x="63.5" y="35.71875" fill="#ffea80" font-size="4.9389px" stroke="#000000" stroke-width=".79375" xml:space="preserve"><tspan x="63.5" y="35.71875" stroke-width=".79375">E</tspan></text>
<text x="33.072918" y="5.2916665" fill="#ffea80" font-size="4.9389px" stroke="#000000" stroke-width=".79375" xml:space="preserve"><tspan x="33.072918" y="5.2916665" font-size="4.9389px" stroke-width=".79375">N</tspan></text>
</svg>
